<?xml version="1.0" encoding="utf-8"?>
<!-- Generator: Adobe Illustrator 23.1.1, SVG Export Plug-In . SVG Version: 6.00 Build 0)  -->
<svg version="1.1" id="Layer_1" xmlns="http://www.w3.org/2000/svg" xmlns:xlink="http://www.w3.org/1999/xlink" x="0px" y="0px"
	 viewBox="0 0 16 16" style="enable-background:new 0 0 16 16;" xml:space="preserve">
<path d="M9.4,13h0.8c0.2,0,0.4-0.2,0.4-0.4V5.9c0-0.2-0.2-0.4-0.4-0.4H9.4C9.2,5.5,9,5.7,9,5.9v6.8C9,12.8,9.2,13,9.4,13z M14.5,2.5
	h-2.6l-1.1-1.8C10.6,0.3,10.1,0,9.6,0H6.4c-0.5,0-1,0.3-1.3,0.7L4.1,2.5H1.5C1.2,2.5,1,2.7,1,3v0.5C1,3.8,1.2,4,1.5,4H2v10.5
	C2,15.3,2.7,16,3.5,16l0,0h9c0.8,0,1.5-0.7,1.5-1.5l0,0V4h0.5C14.8,4,15,3.8,15,3.5V3C15,2.7,14.8,2.5,14.5,2.5z M6.4,1.6
	c0-0.1,0.1-0.1,0.2-0.1h2.9c0.1,0,0.1,0,0.2,0.1l0.5,0.9H5.8L6.4,1.6z M12.5,14.5h-9V4h9V14.5z M5.9,13h0.8C6.8,13,7,12.8,7,12.6
	V5.9c0-0.2-0.2-0.4-0.4-0.4H5.9c-0.2,0-0.4,0.2-0.4,0.4v6.8C5.5,12.8,5.7,13,5.9,13z"/>
</svg>
