<?xml version="1.0" encoding="utf-8"?>
<!-- Generator: Adobe Illustrator 23.1.1, SVG Export Plug-In . SVG Version: 6.00 Build 0)  -->
<svg version="1.1" id="Layer_1" xmlns="http://www.w3.org/2000/svg" xmlns:xlink="http://www.w3.org/1999/xlink" x="0px" y="0px"
	 viewBox="0 0 16 16" style="enable-background:new 0 0 16 16;" xml:space="preserve">
<path d="M14.3,0H1.7C0.8,0,0,0.8,0,1.7v12.6C0,15.2,0.8,16,1.7,16h12.6c0.9,0,1.7-0.8,1.7-1.7V1.7C16,0.8,15.2,0,14.3,0z M14.1,14.3
	H1.9c-0.1,0-0.2-0.1-0.2-0.2V1.9c0-0.1,0.1-0.2,0.2-0.2h12.1c0.1,0,0.2,0.1,0.2,0.2v12.1C14.3,14.2,14.2,14.3,14.1,14.3z M12.1,3.4
	H7.3C6.9,3.4,6.7,3.9,7,4.2l1.7,1.7L3.6,11c-0.2,0.2-0.2,0.4,0,0.6l0.8,0.8c0.2,0.2,0.4,0.2,0.6,0l5.2-5.2L11.8,9
	c0.3,0.3,0.7,0.1,0.7-0.3V3.9C12.6,3.6,12.4,3.4,12.1,3.4z"/>
</svg>
