<?xml version="1.0" encoding="utf-8"?>
<!-- Generator: Adobe Illustrator 23.1.1, SVG Export Plug-In . SVG Version: 6.00 Build 0)  -->
<svg version="1.1" id="Layer_1" xmlns="http://www.w3.org/2000/svg" xmlns:xlink="http://www.w3.org/1999/xlink" x="0px" y="0px"
	 viewBox="0 0 100 100" style="enable-background:new 0 0 100 100;" xml:space="preserve">
<style type="text/css">
	.st0{fill:#FFFFFF;}
	.st1{fill:#3FB6E9;}
</style>
<g>
	<path class="st0" d="M49.9,87.8L49.9,87.8c-12.6,0-23-10.3-23-23V45.6c0-12.6,10.3-23,23-23h0c12.6,0,23,10.3,23,23v19.2
		C72.8,77.4,62.5,87.8,49.9,87.8z"/>
	<path class="st1" d="M49.9,22.7v30.6h23v-7.6C72.8,33,62.5,22.7,49.9,22.7z"/>
	<path d="M49.9,89.8c-13.8,0-25-11.2-25-25V45.6c0-13.8,11.2-25,25-25s25,11.2,25,25v19.2C74.8,78.6,63.6,89.8,49.9,89.8z
		 M49.9,24.7c-11.6,0-21,9.4-21,21v19.2c0,11.6,9.4,21,21,21c11.6,0,21-9.4,21-21V45.6C70.8,34.1,61.4,24.7,49.9,24.7z"/>
	<path d="M83.1,43.3c-1.1,0-2-0.9-2-2C81.1,26.4,69,14.2,54,14.2c-1.1,0-2-0.9-2-2s0.9-2,2-2c17.1,0,31.1,13.9,31.1,31.1
		C85.1,42.4,84.2,43.3,83.1,43.3z"/>
	<rect x="26.9" y="51.2" width="46" height="4"/>
	<rect x="47.9" y="22.7" width="4" height="30.6"/>
</g>
</svg>
