<?xml version="1.0" encoding="utf-8"?>
<!-- Generator: Adobe Illustrator 23.1.1, SVG Export Plug-In . SVG Version: 6.00 Build 0)  -->
<svg version="1.1" id="Layer_1" xmlns="http://www.w3.org/2000/svg" xmlns:xlink="http://www.w3.org/1999/xlink" x="0px" y="0px"
	 viewBox="0 0 16 16" style="enable-background:new 0 0 16 16;" xml:space="preserve">
<path d="M14.3,7.4l1-0.6c0.3-0.2,0.5-0.5,0.4-0.9c-0.4-1.4-1.1-2.6-2.1-3.6C13.4,2.1,13,2,12.7,2.2l-1,0.6c-0.3-0.2-0.7-0.4-1.1-0.6
	V1c0-0.4-0.2-0.7-0.6-0.7c-1.3-0.4-2.8-0.4-4.1,0C5.6,0.4,5.4,0.7,5.4,1v1.2C5,2.4,4.6,2.6,4.3,2.8l-1-0.6C3,2,2.6,2.1,2.3,2.3
	c-1,1-1.7,2.2-2.1,3.6C0.2,6.3,0.3,6.6,0.6,6.8l1,0.6c0,0.4,0,0.8,0,1.2l-1,0.6c-0.3,0.2-0.5,0.5-0.4,0.9c0.4,1.4,1.1,2.6,2.1,3.6
	C2.6,13.9,3,14,3.3,13.8l1-0.6c0.3,0.2,0.7,0.4,1.1,0.6V15c0,0.4,0.2,0.7,0.6,0.7c1.3,0.4,2.8,0.4,4.1,0c0.3-0.1,0.6-0.4,0.6-0.7
	v-1.2c0.4-0.2,0.7-0.4,1.1-0.6l1,0.6c0.3,0.2,0.7,0.1,0.9-0.1c1-1,1.7-2.2,2.1-3.6c0.1-0.3-0.1-0.7-0.4-0.9l-1-0.6
	C14.4,8.2,14.4,7.8,14.3,7.4z M12.6,9.4l1.4,0.8c-0.3,0.7-0.6,1.3-1.1,1.9l-1.4-0.8c-1,0.9-1.2,1-2.5,1.4v1.6
	c-0.7,0.1-1.5,0.1-2.2,0v-1.6c-1.3-0.5-1.4-0.5-2.5-1.4L3,12.1c-0.5-0.6-0.8-1.2-1.1-1.9l1.4-0.8c-0.2-1.3-0.2-1.5,0-2.8L1.9,5.8
	C2.2,5.1,2.6,4.4,3,3.9l1.4,0.8c1-0.9,1.2-1,2.5-1.4V1.6c0.7-0.1,1.5-0.1,2.2,0v1.6c1.3,0.5,1.4,0.5,2.5,1.4L13,3.9
	c0.5,0.6,0.8,1.2,1.1,1.9l-1.4,0.8C12.9,7.9,12.9,8.1,12.6,9.4L12.6,9.4z M8,4.9C6.3,4.9,4.9,6.3,4.9,8s1.4,3.1,3.1,3.1
	s3.1-1.4,3.1-3.1S9.7,4.9,8,4.9z M8,9.5C7.1,9.5,6.5,8.9,6.5,8c0-0.9,0.7-1.5,1.5-1.5S9.5,7.1,9.5,8C9.5,8.9,8.9,9.5,8,9.5z"/>
</svg>
