<?xml version="1.0" encoding="utf-8"?>
<!-- Generator: Adobe Illustrator 23.1.1, SVG Export Plug-In . SVG Version: 6.00 Build 0)  -->
<svg version="1.1" id="Layer_1" xmlns="http://www.w3.org/2000/svg" xmlns:xlink="http://www.w3.org/1999/xlink" x="0px" y="0px"
	 viewBox="0 0 1024 1024" style="enable-background:new 0 0 1024 1024;" xml:space="preserve">
<style type="text/css">
	.st0{fill:#FFCE07;}
	.st1{fill:#FFFFFF;}
	.st2{fill:#3FB6E9;}
	.st3{fill:#666766;}
</style>
<path class="st0" d="M147.4,29.1h729.2c23.4,0,42.4,19,42.4,42.4v910.1c0,23.4-19,42.4-42.4,42.4H147.4c-23.4,0-42.4-19-42.4-42.4
	V71.5C105,48.1,124,29.1,147.4,29.1z"/>
<path class="st1" d="M226.5,119.5h570.9c17.2,0,31.1,13.9,31.1,31.1v751.8c0,17.2-13.9,31.1-31.1,31.1H226.5
	c-17.2,0-31.1-13.9-31.1-31.1V150.6C195.4,133.4,209.4,119.5,226.5,119.5z"/>
<path class="st2" d="M670.3,28.3v79.1c0,15.6-12.7,28.3-28.3,28.3H382c-15.6,0-28.3-12.7-28.3-28.3V28.3C353.7,12.7,366.4,0,382,0
	h260C657.6,0,670.3,12.7,670.3,28.3z"/>
<g>
	<path class="st3" d="M417.1,607.1c11.7,9.7,13.3,26.9,3.6,38.6c-5.4,6.5-13.2,9.9-21.1,9.9c-6.2,0-12.4-2.1-17.5-6.3l-105.6-87.7
		c-6.3-5.2-9.9-12.9-9.9-21.1c0-8.1,3.6-15.9,9.9-21.1l105.6-87.7c11.6-9.7,28.9-8.1,38.6,3.6c9.7,11.6,8.1,28.9-3.6,38.6L337,540.5
		L417.1,607.1z"/>
	<path class="st3" d="M588.7,374.3L488,722c-3.5,12-14.4,19.8-26.3,19.8c-2.5,0-5.1-0.4-7.6-1.1c-14.5-4.2-22.9-19.4-18.7-33.9
		L536,359.1c4.2-14.5,19.4-22.9,34-18.7C584.5,344.6,592.9,359.8,588.7,374.3z"/>
	<path class="st3" d="M747.5,561.6l-105.6,87.7c-5.1,4.2-11.3,6.3-17.5,6.3c-7.9,0-15.7-3.4-21.1-9.9c-9.7-11.7-8.1-28.9,3.6-38.6
		l80.2-66.6L606.8,474c-11.7-9.7-13.2-26.9-3.6-38.6c9.7-11.6,26.9-13.3,38.6-3.6l105.6,87.7c6.3,5.2,9.9,12.9,9.9,21.1
		C757.4,548.7,753.7,556.4,747.5,561.6z"/>
</g>
</svg>
