<?xml version="1.0" encoding="utf-8"?>
<!-- Generator: Adobe Illustrator 23.1.1, SVG Export Plug-In . SVG Version: 6.00 Build 0)  -->
<svg version="1.1" id="Layer_1" xmlns="http://www.w3.org/2000/svg" xmlns:xlink="http://www.w3.org/1999/xlink" x="0px" y="0px"
	 viewBox="0 0 1024 1024" style="enable-background:new 0 0 1024 1024;" xml:space="preserve">
<style type="text/css">
	.st0{fill:#FFCE07;}
	.st1{fill:#FFFFFF;}
	.st2{fill:#3FB6E9;}
	.st3{fill:#666766;}
</style>
<path class="st0" d="M147.4,29.1h729.2c23.4,0,42.4,19,42.4,42.4v910.1c0,23.4-19,42.4-42.4,42.4H147.4c-23.4,0-42.4-19-42.4-42.4
	V71.5C105,48.1,124,29.1,147.4,29.1z"/>
<path class="st1" d="M226.5,119.5h570.9c17.2,0,31.1,13.9,31.1,31.1v751.8c0,17.2-13.9,31.1-31.1,31.1H226.5
	c-17.2,0-31.1-13.9-31.1-31.1V150.6C195.4,133.4,209.4,119.5,226.5,119.5z"/>
<path class="st2" d="M670.3,28.3v79.1c0,15.6-12.7,28.3-28.3,28.3H382c-15.6,0-28.3-12.7-28.3-28.3V28.3C353.7,12.7,366.4,0,382,0
	h260C657.6,0,670.3,12.7,670.3,28.3z"/>
<g>
	<path class="st3" d="M323.2,471.7c3.2,3.2,7.4,4.8,11.7,4.8s8.4-1.6,11.7-4.8c6.4-6.4,6.4-16.9,0-23.3l-40.1-40.1l40.1-40
		c6.4-6.4,6.4-16.9,0-23.3s-16.9-6.4-23.3,0l-51.7,51.7c-3.1,3.1-4.8,7.3-4.8,11.7c0,4.4,1.7,8.6,4.8,11.7L323.2,471.7z"/>
	<path class="st3" d="M486.9,408.3l-40.1,40.1c-6.4,6.4-6.4,16.9,0,23.3c3.2,3.2,7.4,4.8,11.7,4.8c4.2,0,8.4-1.6,11.7-4.8l51.7-51.7
		c6.4-6.4,6.4-16.9,0-23.3L470.1,345c-6.4-6.4-16.9-6.4-23.3,0c-6.4,6.4-6.4,16.9,0,23.3L486.9,408.3z"/>
	<path class="st3" d="M372.1,475.4c2,0.8,4,1.1,6,1.1c6.6,0,12.8-4,15.4-10.5l40.6-103.4c3.3-8.5-0.8-18-9.3-21.4
		c-8.5-3.3-18,0.8-21.4,9.3L362.7,454C359.4,462.5,363.6,472.1,372.1,475.4z"/>
	<path class="st3" d="M638.6,494.2h-67c-8.6,0-15.5-6.9-15.5-15.5v-2.4c0-8.6,6.9-15.5,15.5-15.5h67c8.6,0,15.5,6.9,15.5,15.5v2.4
		C654.1,487.3,647.2,494.2,638.6,494.2z"/>
	<path class="st3" d="M597.7,422.1h-27.1c-8.6,0-15.5-6.9-15.5-15.5v-2.4c0-8.6,6.9-15.5,15.5-15.5h27.1c8.6,0,15.5,6.9,15.5,15.5
		v2.4C613.2,415.2,606.3,422.1,597.7,422.1z"/>
	<path class="st3" d="M730.2,573.9h-18.5c-8.6,0-15.5-6.9-15.5-15.5V556c0-8.6,6.9-15.5,15.5-15.5h18.5c8.6,0,15.5,6.9,15.5,15.5
		v2.4C745.7,567,738.7,573.9,730.2,573.9z"/>
	<path class="st3" d="M735.5,422.1h-85.3c-8.6,0-15.5-6.9-15.5-15.5v-2.4c0-8.6,6.9-15.5,15.5-15.5h85.3c8.6,0,15.5,6.9,15.5,15.5
		v2.4C751,415.2,744.1,422.1,735.5,422.1z"/>
	<path class="st3" d="M741.9,494.2H691c-8.6,0-15.5-6.9-15.5-15.5v-2.4c0-8.6,6.9-15.5,15.5-15.5h50.8c8.6,0,15.5,6.9,15.5,15.5v2.4
		C757.4,487.3,750.4,494.2,741.9,494.2z"/>
	<path class="st3" d="M404.9,573.9H290.7c-8.6,0-15.5-6.9-15.5-15.5V556c0-8.6,6.9-15.5,15.5-15.5h114.2c8.6,0,15.5,6.9,15.5,15.5
		v2.4C420.4,567,413.5,573.9,404.9,573.9z"/>
	<path class="st3" d="M661.3,573.9H461.8c-8.6,0-15.5-6.9-15.5-15.5V556c0-8.6,6.9-15.5,15.5-15.5h199.5c8.6,0,15.5,6.9,15.5,15.5
		v2.4C676.8,567,669.9,573.9,661.3,573.9z"/>
	<path class="st3" d="M340.7,642.8H291c-8.6,0-15.5-6.9-15.5-15.5v-2.4c0-8.6,6.9-15.5,15.5-15.5h49.8c8.6,0,15.5,6.9,15.5,15.5v2.4
		C356.2,635.9,349.3,642.8,340.7,642.8z"/>
	<path class="st3" d="M540.8,642.8H395.5c-8.6,0-15.5-6.9-15.5-15.5v-2.4c0-8.6,6.9-15.5,15.5-15.5h145.2c8.6,0,15.5,6.9,15.5,15.5
		v2.4C556.3,635.9,549.3,642.8,540.8,642.8z"/>
	<path class="st3" d="M629,642.8h-31.2c-8.6,0-15.5-6.9-15.5-15.5v-2.4c0-8.6,6.9-15.5,15.5-15.5H629c8.6,0,15.5,6.9,15.5,15.5v2.4
		C644.5,635.9,637.5,642.8,629,642.8z"/>
	<path class="st3" d="M735.8,642.8h-57c-8.6,0-15.5-6.9-15.5-15.5v-2.4c0-8.6,6.9-15.5,15.5-15.5h57c8.6,0,15.5,6.9,15.5,15.5v2.4
		C751.3,635.9,744.4,642.8,735.8,642.8z"/>
	<path class="st3" d="M379,711.7h-88c-8.6,0-15.5-6.9-15.5-15.5v-2.4c0-8.6,6.9-15.5,15.5-15.5h88c8.6,0,15.5,6.9,15.5,15.5v2.4
		C394.5,704.8,387.6,711.7,379,711.7z"/>
	<path class="st3" d="M540.8,711.7H426.5c-8.6,0-15.5-6.9-15.5-15.5v-2.4c0-8.6,6.9-15.5,15.5-15.5h114.3c8.6,0,15.5,6.9,15.5,15.5
		v2.4C556.3,704.8,549.4,711.7,540.8,711.7z"/>
	<path class="st3" d="M742.4,711.7H593.7c-8.6,0-15.5-6.9-15.5-15.5v-2.4c0-8.6,6.9-15.5,15.5-15.5h148.8c8.6,0,15.5,6.9,15.5,15.5
		v2.4C757.9,704.8,751,711.7,742.4,711.7z"/>
</g>
</svg>
